<svg width="87" height="87" viewBox="0 0 87 87" fill="none" xmlns="http://www.w3.org/2000/svg">
<path d="M43.5 0L87 43.5L43.5 87L-3.02077e-06 43.5L43.5 0Z" fill="url(#paint0_linear)"/>
<path d="M45.7006 43.8179H42.185V55.8238H40.0229V30.23H42.185V41.9722H45.5952L55.4916 30.23H58.2162L47.7045 42.816L58.9897 55.8238H56.3002L45.7006 43.8179ZM48.023 30.23V55.8238H45.8609V32.0757H35.0504L34.4527 42.6578C34.2184 46.4429 33.8551 49.1968 33.3629 50.9195C32.8824 52.6304 32.191 53.8726 31.2887 54.6461C30.398 55.4078 29.1852 55.8004 27.65 55.8238H26.7359V53.9957L27.4391 53.9781C28.6461 53.9195 29.5543 53.5386 30.1637 52.8355C30.773 52.1324 31.2418 50.9957 31.5699 49.4254C31.9098 47.8433 32.1734 45.4058 32.3609 42.1129L32.9937 30.23H48.023Z" fill="white"/>
<defs>
<linearGradient id="paint0_linear" x1="43.5" y1="0" x2="42.4844" y2="88.0156" gradientUnits="userSpaceOnUse">
<stop stop-color="#2D3757"/>
<stop offset="1" stop-color="#37526C"/>
</linearGradient>
</defs>
</svg>
